<svg height="603.515" viewBox="0 0 159.58 159.68" width="603.137" xmlns="http://www.w3.org/2000/svg"><g transform="translate(-18.07 -73.99)"><rect fill="pink" height="159.51" rx="10" width="159.51" x="18.14" y="73.99"/><path d="M26.559 81.57h56.344v16.37H41.841v16.222h20.423v15.811H41.84v31.373H26.559zM115.032 151.454h17.233v61.544H171v16.834h-55.968z" fill="maroon"/><path d="M122.27 102.122s-45.7 37.816-66.35 52.866c-11.078-5.348-18.234 4.455-18.234 4.455s1.321-11.903-9.93-17.903c-3.356-1.79-6.72-2.414-9.794-2.414v55.524l76.186-61.076-76.186 74.816v7.011l61.584-59.413-61.584 76.303v.123h9.15l76.72-95.844-68.146 95.844h95.377c-1.86-3.54-4.015-6.835-6.381-9.033-7.045-6.54-19.645-6.89-19.645-6.89s2.968-5.539-1.663-14.25c-3.587-6.75-14.087-6.75-14.087-6.75s3.368-5.043 4.617-11.833-6.597-11.452-6.597-11.452l44.73-63.7-9.766-6.382z" fill="#fff"/><path d="M85.18 116.72l26.61-3.05 10.63-5.21 6.26 4.2-5.35 7.02-.49 23.14 37.66-63.3z" fill="maroon"/></g></svg>
