<?xml version="1.0" encoding="UTF-8" standalone="no"?>
<!-- Created with Inkscape (http://www.inkscape.org/) -->

<svg
   xmlns:dc="http://purl.org/dc/elements/1.1/"
   xmlns:cc="http://creativecommons.org/ns#"
   xmlns:rdf="http://www.w3.org/1999/02/22-rdf-syntax-ns#"
   xmlns:svg="http://www.w3.org/2000/svg"
   xmlns="http://www.w3.org/2000/svg"
   xmlns:sodipodi="http://sodipodi.sourceforge.net/DTD/sodipodi-0.dtd"
   xmlns:inkscape="http://www.inkscape.org/namespaces/inkscape"
   width="159.58328mm"
   height="159.68045mm"
   viewBox="0 0 159.58328 159.68045"
   version="1.1"
   id="svg8"
   inkscape:version="0.91 r13725"
   sodipodi:docname="logo.svg">
  <defs
     id="defs2" />
  <sodipodi:namedview
     id="base"
     pagecolor="#ffffff"
     bordercolor="#666666"
     borderopacity="1.0"
     inkscape:pageopacity="0.0"
     inkscape:pageshadow="2"
     inkscape:zoom="0.74786941"
     inkscape:cx="-17.651445"
     inkscape:cy="312.0093"
     inkscape:document-units="mm"
     inkscape:current-layer="layer1"
     showgrid="false"
     showguides="false"
     inkscape:window-width="1920"
     inkscape:window-height="1056"
     inkscape:window-x="1600"
     inkscape:window-y="24"
     inkscape:window-maximized="1"
     fit-margin-top="0"
     fit-margin-left="0"
     fit-margin-right="0"
     fit-margin-bottom="0">
    <inkscape:grid
       type="xygrid"
       id="grid857"
       originx="-18.065529"
       originy="-63.325502" />
  </sodipodi:namedview>
  <metadata
     id="metadata5">
    <rdf:RDF>
      <cc:Work
         rdf:about="">
        <dc:format>image/svg+xml</dc:format>
        <dc:type
           rdf:resource="http://purl.org/dc/dcmitype/StillImage" />
        <dc:title></dc:title>
      </cc:Work>
    </rdf:RDF>
  </metadata>
  <g
     inkscape:label="Calque 1"
     inkscape:groupmode="layer"
     id="layer1"
     transform="translate(-18.065529,-73.994041)">
    <rect
       style="fill:#ffaa56;fill-opacity:1;stroke:none;stroke-width:0.26458332;stroke-opacity:1"
       id="rect815"
       width="159.50595"
       height="159.50595"
       x="18.142857"
       y="73.994041"
       rx="10.000007"
       ry="10.000007" />
    <g
       transform="matrix(0.5739178,0,0,0.5739178,-54.20704,-92.069676)"
       style="font-style:normal;font-weight:normal;font-size:40px;line-height:25px;font-family:sans-serif;letter-spacing:0px;word-spacing:0px;fill:#800000;fill-opacity:1;stroke:none"
       id="flowRoot819">
      <path
         d="m 141.70117,304.62817 98.84835,0 0,28.72292 -72.0429,0 0,28.46458 35.83013,0 0,27.73942 -35.83013,0 0,55.04183 -26.80545,0 z"
         style="font-size:192px;line-height:145.92756653px;fill:#800000"
         id="path8141"
         inkscape:connector-curvature="0"
         sodipodi:nodetypes="ccccccccccc" />
    </g>
    <g
       transform="matrix(0.60634735,0,0,0.55938253,-177.057,-152.33745)"
       style="font-style:normal;font-weight:normal;font-size:40px;line-height:25px;font-family:sans-serif;letter-spacing:0px;word-spacing:0px;fill:#800000;fill-opacity:1;stroke:none"
       id="flowRoot827">
      <path
         d="m 478.84375,542.48576 28.24643,0 0,109.90456 63.50178,0 0,30.06419 -91.74821,0 z"
         style="font-size:192px;fill:#800000"
         id="path8144"
         inkscape:connector-curvature="0"
         sodipodi:nodetypes="ccccccc" />
    </g>
    <path
       style="fill:#ffffff;stroke:none;stroke-width:0.26458332px;stroke-linecap:butt;stroke-linejoin:miter;stroke-opacity:1"
       d="m 418.35742,100.4707 c 0,0 -163.2246,135.05665 -236.97461,188.80664 -39.56433,-19.0985 -65.12109,15.90821 -65.12109,15.90821 0,0 4.72349,-42.51478 -35.455079,-63.94336 -11.985214,-6.39212 -24.001686,-8.61747 -34.976563,-8.61914 l 0,198.30468 272.091802,-218.13281 -272.091802,267.20313 0,25.03906 219.943362,-212.18555 -219.943362,272.50782 0,0.4375 32.683594,0 274.001948,-342.30469 -243.38281,342.30469 340.63477,0 c -6.64487,-12.64126 -14.33676,-24.41285 -22.78906,-32.25977 -25.16067,-23.35854 -70.16016,-24.60938 -70.16016,-24.60938 0,0 10.60032,-19.78318 -5.93555,-50.89257 -12.81387,-24.10715 -50.31445,-24.10743 -50.31445,-24.10743 0,0 12.02593,-18.0121 16.48633,-42.26171 4.46039,-24.24962 -23.56055,-40.9043 -23.56055,-40.9043 l 159.74805,-227.5 -34.88477,-22.79102 z"
       transform="matrix(0.28222222,0,0,0.28222221,5.1312631,73.994041)"
       id="path835"
       inkscape:connector-curvature="0" />
    <path
       style="fill:#800000;stroke:none;stroke-width:0.26458332px;stroke-linecap:butt;stroke-linejoin:miter;stroke-opacity:1"
       d="m 85.180924,116.72485 26.610226,-3.05314 10.63172,-5.21381 6.25665,4.19622 -5.34737,7.01776 -0.48577,23.13585 37.66453,-63.297122 z"
       id="path863"
       inkscape:connector-curvature="0"
       sodipodi:nodetypes="cccccccc" />
  </g>
</svg>
